<?xml version="1.0" encoding="utf-8"?>
<!-- Generator: Adobe Illustrator 21.1.0, SVG Export Plug-In . SVG Version: 6.00 Build 0)  -->
<svg version="1.1" id="Layer_1" xmlns="http://www.w3.org/2000/svg" xmlns:xlink="http://www.w3.org/1999/xlink" x="0px" y="0px"
	 viewBox="0 0 283.5 40.2" style="enable-background:new 0 0 283.5 40.2;" xml:space="preserve">
<style type="text/css">
	.st0{fill:#5A9DB9;}
</style>
<g>
	<path class="st0" d="M0,10.4h13.3c2.2,0,4.2,0.2,5.8,2.1c1,1.1,1.3,2.6,1.3,3.7c0,1.5-0.5,3.2-1.9,4.3c-1,0.8-2.4,1.1-3.1,1.2
		l5.9,8.1h-5.7L10.3,22H4.8v7.8H0V10.4z M4.8,18.5h7.7c1,0,2.9-0.1,2.9-2.3c0-0.4-0.1-1-0.4-1.5c-0.4-0.5-0.8-0.9-2.7-0.9H4.8V18.5z
		"/>
	<path class="st0" d="M31.5,10.4h5.2L46,29.7h-5.4L39,26.1h-9.9l-1.6,3.6h-5.3L31.5,10.4z M34.6,16.3c-0.1-0.2-0.2-0.5-0.3-0.8
		c-0.1-0.2-0.1-0.5-0.2-0.8c-0.1,0.2-0.1,0.5-0.2,0.7c-0.1,0.2-0.2,0.5-0.3,0.7l-2.9,6.4h6.8L34.6,16.3z"/>
	<path class="st0" d="M48.3,10.4h10.6c0.7,0,1.4,0,2.1,0.1c5.6,0.5,8.4,4.5,8.4,9.4c0,2.2-0.5,4.4-1.9,6.2c-2.7,3.5-6.4,3.6-9.3,3.6
		h-10L48.3,10.4L48.3,10.4z M53.1,13.8v12.5h5.3c1.7,0,3.7-0.1,5-1.9c0.6-0.8,1.2-2.1,1.2-4.6c0-1.8-0.4-3.1-1-4c-1.3-2-3.3-2-5-2.1
		h-5.5V13.8z"/>
	<path class="st0" d="M73,10.4h4.8v19.3H73V10.4z"/>
	<path class="st0" d="M103.3,13.5c0.8,1,2.1,3.1,2.1,6.3c0,6.2-4,10.5-11.8,10.5S81.7,26.1,81.7,20c0-6.7,4.8-10,11.1-10.3
		C96.6,9.6,100.9,10.6,103.3,13.5z M86.7,20.2c0,2.4,0.9,3.6,1.2,4.1c0.5,0.7,1.9,2.7,5.6,2.7c4.5,0,6.9-3.1,6.9-6.8
		c0-4.3-3.3-7-7.1-6.8C90.1,13.4,86.7,15.5,86.7,20.2z"/>
	<path class="st0" d="M108.6,10.4h7l5,11.8c0.5,1.3,0.7,1.8,1,2.9c0.2-0.8,0.4-1.3,0.9-2.7l5-12h6.9v19.3h-4.6V16.2
		c0-0.6,0.1-1.1,0.2-1.8c-0.2,0.6-0.3,0.8-0.5,1.5l-5.8,13.9h-4.4l-5.8-13.6c-0.3-0.7-0.4-1-0.6-1.8c0.1,0.8,0.1,1,0.2,1.7v13.6
		h-4.6V10.4H108.6z"/>
	<path class="st0" d="M138.9,10.4h18v3.5h-13.2v4.4h12.7v3.4h-12.7v4.6h13.7v3.4h-18.6V10.4H138.9z"/>
	<path class="st0" d="M159.2,10.4h19.2v3.5h-7.2v15.8h-4.8V13.9h-7.2V10.4z"/>
	<path class="st0" d="M181.5,10.4h18v3.5h-13.2v4.4H199v3.4h-12.7v4.6H200v3.4h-18.6V10.4H181.5z"/>
	<path class="st0" d="M203.8,10.4h13.3c2.2,0,4.2,0.2,5.8,2.1c1,1.1,1.3,2.6,1.3,3.7c0,1.5-0.5,3.2-1.9,4.3c-1,0.8-2.4,1.1-3.1,1.2
		l5.9,8.1h-5.7l-5.2-7.8h-5.5v7.8h-4.8V10.4H203.8z M208.7,18.5h7.7c1,0,2.9-0.1,2.9-2.3c0-0.4-0.1-1-0.4-1.5
		c-0.4-0.5-0.8-0.9-2.7-0.9h-7.5V18.5z"/>
	<path class="st0" d="M240.6,21.1h-6.1v5.8h7.4C241.2,25.1,240.7,23.1,240.6,21.1z M241.9,13.3h-7.4v5.8h6.1
		C240.7,17.1,241.2,15.1,241.9,13.3z M258.9,38.4c-6.9,0-13-3.9-16.1-9.5h-8.3v11.3h49V21.1h-6.3C276.6,30.7,268.6,38.4,258.9,38.4z
		 M234.5,0v11.3h8.3c3.1-5.7,9.1-9.5,16.1-9.5c9.8,0,17.7,7.7,18.3,17.3h6.3V0H234.5z M258.9,36.4c9,0,16.3-7.3,16.3-16.3
		s-7.3-16.3-16.3-16.3s-16.3,7.3-16.3,16.3C242.6,29.1,249.9,36.4,258.9,36.4z M249.8,11L249.8,11c1.6-0.1,11.8-0.1,12.4-0.1
		c2.1,0,3.5,0.3,4.5,0.8c1.4,0.8,2.1,2.2,2.1,4.2l0,0l0,0c0,2.6-1.4,4.4-4,5h-0.1V21l4.9,8.1h-2.9l-4.6-8.1h-7.3v-2h0.1
		c2.6,0,6.2,0,6.7,0c1.9,0,2.8-0.2,3.4-0.6c0.7-0.5,1.1-1.3,1.1-2.5c0-2.1-1.1-3-3.9-3c0,0-8.4,0-10,0h-0.1v16.2h-2.4L249.8,11
		L249.8,11z"/>
</g>
</svg>
